# xmcd CD database file
#
# Track frame offsets:
#	150
#	12976
#	31797
#	50996
#	64562
#	77943
#	90666
#	104196
#	118773
#	132950
#	150454
#	166056
#	179943
#	199613
#	215349
#	230926
#	244834
#	265809
#	286577
#	305098
#	325687
#
# Disc length: 4523 seconds
#
# Revision: 0
# Processed by: cddbd v1.5.2PL0 Copyright (c) Steve Scherf et al.
# Submitted via: CDex 1.51
#
DISCID=3111a915
DTITLE=Pee Wee Russell - Weary Blues - Quadromania CD3
DYEAR=1900
DGENRE=Jazz
TTITLE0=Dancing Fall
TTITLE1=That's A Plenty
TTITLE2=Panama
TTITLE3=Nobody Knows You When You're Down And Out
TTITLE4=Rose Room
TTITLE5=Angry
TTITLE6=Weary Blues
TTITLE7=Snag It
TTITLE8=Alice Blue Gown
TTITLE9=Sweet Lorraine
TTITLE10=Oh, Lady Be Good
TTITLE11=Sugar
TTITLE12=September In The Rain
TTITLE13=I Must Have That Man
TTITLE14=When Your Lover Has Gone
TTITLE15=Riverside Blues
TTITLE16=That's A Plenty
TTITLE17=Squeeze Me
TTITLE18=Jazz Me Blues
TTITLE19=Pat's Blues
TTITLE20=The Sheik Of Araby
EXTD=
EXTT0=
EXTT1=
EXTT2=
EXTT3=
EXTT4=
EXTT5=
EXTT6=
EXTT7=
EXTT8=
EXTT9=
EXTT10=
EXTT11=
EXTT12=
EXTT13=
EXTT14=
EXTT15=
EXTT16=
EXTT17=
EXTT18=
EXTT19=
EXTT20=
PLAYORDER=
